<?xml version="1.0" encoding="UTF-8" standalone="no"?>
<svg width="180px" height="46px" viewBox="0 0 180 46" version="1.1" xmlns="http://www.w3.org/2000/svg" xmlns:xlink="http://www.w3.org/1999/xlink">
    <!-- Generator: Sketch 3.8.3 (29802) - http://www.bohemiancoding.com/sketch -->
    <title>euricom-logo white</title>
    <desc>Created with Sketch.</desc>
    <defs></defs>
    <g id="Page-1" stroke="none" stroke-width="1" fill="none" fill-rule="evenodd">
        <g id="home" transform="translate(-62.000000, -66.000000)" fill="#FFFFFF">
            <g id="euricom-logo-white" transform="translate(62.000000, 66.000000)">
                <g id="euricom" transform="translate(0.000000, 3.297203)">
                    <path d="M5.57623587,9.97452902 C4.97071096,10.5980783 4.59047373,11.4427654 4.43507729,12.5087189 L11.8148385,12.5087189 C11.7369177,11.3723259 11.356678,10.5101073 10.6736767,9.92176573 C9.99097338,9.33343217 9.1439574,9.03904021 8.13320857,9.03904021 C7.03368938,9.03904021 6.18131469,9.35097168 5.57623587,9.97452902 M11.9845139,6.27643462 C13.1271573,6.78809615 14.0709845,7.59547657 14.8155447,8.69858392 C15.4864999,9.67121853 15.9216151,10.7994409 16.1207292,12.0832591 C16.2361249,12.8353591 16.2829644,13.9185545 16.2618516,15.3325559 L4.32979434,15.3325559 C4.39611686,16.974957 4.96743936,18.1263643 6.04301945,18.7873731 C6.69731958,19.1979713 7.48441291,19.4030493 8.4047439,19.4030493 C9.38069125,19.4030493 10.1735886,19.1529444 10.7835728,18.6521395 C11.1159262,18.3816724 11.409919,18.0062899 11.6649474,17.5256944 L16.0383474,17.5256944 C15.9230967,18.4969941 15.3937147,19.4833 14.4503304,20.4846122 C12.9827658,22.0766385 10.9282622,22.872728 8.28681985,22.872728 C6.10636749,22.872728 4.18272546,22.201321 2.51619328,20.8583542 C0.849363987,19.5155402 0.0160234348,17.3305724 0.0160234348,14.3037483 C0.0160234348,11.4675829 0.768319847,9.29271573 2.27306119,7.77945245 C3.77750556,6.26618112 5.7304422,5.50932832 8.13157398,5.50932832 C9.5572029,5.50932832 10.8415645,5.76507867 11.9845139,6.27643462" id="Fill-23"></path>
                    <path d="M22.9941192,5.94486469 L22.9941192,15.8131192 C22.9941192,16.7445871 23.1037173,17.4455643 23.3232034,17.9160591 C23.7120669,18.7473643 24.4744787,19.1627234 25.6113245,19.1627234 C27.0669881,19.1627234 28.0640562,18.5721542 28.602513,17.3904367 C28.8816335,16.7496374 29.0212662,15.9034706 29.0212662,14.8519283 L29.0212662,5.94486469 L33.3649296,5.94486469 L33.3649296,22.316908 L29.2016429,22.316908 L29.2016429,20.0038399 C29.1616397,20.0540699 29.0617122,20.2043098 28.9020055,20.4545594 C28.7418478,20.7049619 28.5522514,20.9253517 28.3323143,21.1154154 C27.6628487,21.7162381 27.0158326,22.1268364 26.391427,22.3470734 C25.7667153,22.5671577 25.035095,22.677429 24.1956562,22.677429 C21.7775649,22.677429 20.1489568,21.806292 19.309671,20.0640259 C18.8399073,19.1026822 18.6052509,17.6858661 18.6052509,15.8131192 L18.6052509,5.94486469 L22.9941192,5.94486469 Z" id="Fill-24"></path>
                    <path d="M46.1830365,5.56189056 C46.237912,5.56709371 46.3607399,5.57452448 46.551375,5.58432762 L46.551375,9.97032308 C46.2805886,9.94030245 46.0401346,9.92039056 45.8298602,9.91028182 C45.6192959,9.90032587 45.4487348,9.89527552 45.3186198,9.89527552 C43.5952779,9.89527552 42.4377622,10.4561136 41.8468133,11.5775084 C41.5160945,12.2083437 41.3507351,13.1797881 41.3507351,14.4913913 L41.3507351,22.316892 L37.0371144,22.316892 L37.0371144,5.9448486 L41.1252985,5.9448486 L41.1252985,8.79869825 C41.786736,7.70747692 42.3628126,6.96131993 42.853689,6.56067762 C43.6553552,5.89001853 44.6974753,5.55431503 45.9800574,5.55431503 C46.0602087,5.55431503 46.1278711,5.55698497 46.1830365,5.56189056" id="Fill-25"></path>
                    <path d="M49.5674608,5.94488077 L53.9112692,5.94488077 L53.9112692,22.3169241 L49.5674608,22.3169241 L49.5674608,5.94488077 Z M53.9112692,3.99218077 L49.5674608,3.99218077 L49.5674608,0.0417618881 L53.9112692,0.0417618881 L53.9112692,3.99218077 Z" id="Fill-26"></path>
                    <path d="M67.5619223,11.8178182 C67.481473,11.2071923 67.2755146,10.6563021 66.9441999,10.1656059 C66.4618024,9.50475 65.7135222,9.17424965 64.6993592,9.17424965 C63.2526094,9.17424965 62.2631344,9.89023322 61.7310631,11.3222164 C61.4495672,12.0812969 61.3093386,13.0901927 61.3093386,14.3484455 C61.3093386,15.5472601 61.4495672,16.5112738 61.7310631,17.2401888 C62.2432053,18.6021748 63.2075575,19.2829427 64.6238137,19.2829427 C65.6283141,19.2829427 66.341503,19.0126283 66.7633804,18.4718469 C67.1852497,17.9310654 67.4413249,17.2302329 67.5317347,16.368907 L71.9055776,16.368907 C71.8050543,17.6708517 71.3336641,18.9025098 70.491254,20.0640259 C69.147113,21.9366199 67.1561089,22.8726958 64.5183866,22.8726958 C61.8803664,22.8726958 59.939624,22.0916206 58.6960064,20.5297598 C57.4522438,18.9676014 56.8302135,16.9420895 56.8302135,14.4533608 C56.8302135,11.6449885 57.5172248,9.45957028 58.8912554,7.89756469 C60.265431,6.33540629 62.1611215,5.55433112 64.5784639,5.55433112 C66.6347469,5.55433112 68.3170388,6.01500664 69.6260884,6.93622098 C70.934985,7.85758811 71.7097408,9.48468531 71.9507906,11.8178182 L67.5619223,11.8178182 Z" id="Fill-27"></path>
                    <path d="M85.2658936,17.9482269 C85.9371226,17.0583682 86.2727371,15.7935773 86.2727371,14.1535486 C86.2727371,12.5136727 85.9371226,11.2512542 85.2658936,10.3664458 C84.5943425,9.48163741 83.6325106,9.03908846 82.3801564,9.03908846 C81.1274801,9.03908846 80.1632486,9.48163741 79.4867937,10.3664458 C78.8103389,11.2512542 78.4721799,12.5136727 78.4721799,14.1535486 C78.4721799,15.7935773 78.8103389,17.0583682 79.4867937,17.9482269 C80.1632486,18.8380857 81.1274801,19.2828703 82.3801564,19.2828703 C83.6325106,19.2828703 84.5943425,18.8380857 85.2658936,17.9482269 M88.6928173,20.3142031 C87.3100179,22.0199185 85.2107362,22.8727682 82.3949724,22.8727682 C79.579289,22.8727682 77.4801765,22.0199185 76.097369,20.3142031 C74.7145696,18.608343 74.0232424,16.5548934 74.0232424,14.1535486 C74.0232424,11.792478 74.7145696,9.74645909 76.097369,8.01562867 C77.4801765,6.2846535 79.579289,5.41916993 82.3949724,5.41916993 C85.2107362,5.41916993 87.3100179,6.2846535 88.6928173,8.01562867 C90.0756167,9.74645909 90.7668151,11.792478 90.7668151,14.1535486 C90.7668151,16.5548934 90.0756167,18.608343 88.6928173,20.3142031" id="Fill-28"></path>
                    <path d="M113.679189,6.00494615 C114.380694,6.28536923 115.016976,6.77607343 115.588117,7.4768979 C116.048943,8.0477 116.359595,8.74867727 116.520075,9.57983776 C116.620003,10.1305752 116.670248,10.9367734 116.670248,11.9981189 L116.640214,22.3169483 L112.251378,22.3169483 L112.251378,11.8929059 C112.251378,11.2721794 112.151289,10.7614105 111.95079,10.360921 C111.569842,9.59990245 110.868739,9.21931678 109.846677,9.21931678 C108.664135,9.21931678 107.847484,9.71002098 107.396723,10.6912685 C107.166109,11.2121381 107.051044,11.8379231 107.051044,12.5687762 L107.051044,22.3169483 L102.737254,22.3169483 L102.737254,12.5687762 C102.737254,11.5976294 102.637004,10.8917465 102.436586,10.4509748 C102.075929,9.66008846 101.369592,9.26434371 100.317496,9.26434371 C99.094854,9.26434371 98.273291,9.66008846 97.8524845,10.4509748 C97.6219508,10.9015497 97.5067242,11.5725143 97.5067242,12.463708 L97.5067242,22.3169483 L93.1630608,22.3169483 L93.1630608,5.97493357 L97.3263556,5.97493357 L97.3263556,8.36319406 C97.8574768,7.51212168 98.3583219,6.90610385 98.8294544,6.54572762 C99.6610022,5.90493636 100.738383,5.58439196 102.060952,5.58439196 C103.313467,5.58439196 104.325384,5.85990944 105.097023,6.41049406 C105.718329,6.92126294 106.189139,7.57721329 106.509857,8.37820035 C107.070933,7.41686469 107.767284,6.71082902 108.599154,6.2602542 C109.480706,5.80967937 110.46291,5.58439196 111.545041,5.58439196 C112.266516,5.58439196 112.977764,5.72467587 113.679189,6.00494615" id="Fill-29"></path>
                </g>
                <g id="a-dimension-data-company" transform="translate(0.322087, 33.615385)">
                    <path d="M3.59689616,4.35254734 C3.55689458,4.42566241 3.48046015,4.47871521 3.36774263,4.51185451 C3.25457822,4.54499381 3.15494628,4.56817636 3.06869787,4.58155094 C2.80311148,4.62806483 2.52889961,4.66952675 2.24680708,4.7059351 C1.96426846,4.74249224 1.70700963,4.79717997 1.47473347,4.87014626 C1.24201042,4.9434093 1.05122226,5.04802874 0.901774767,5.1838558 C0.752326463,5.31997962 0.677676392,5.51406021 0.677676392,5.76639514 C0.677676392,5.9257015 0.709053288,6.0667301 0.772253172,6.18947934 C0.835303286,6.31237734 0.919916309,6.41848294 1.0262404,6.50809287 C1.13256369,6.59755402 1.25539393,6.6657651 1.39487928,6.71227899 C1.53451279,6.75864409 1.67711997,6.78197542 1.82329668,6.78197542 C2.06256212,6.78197542 2.29171646,6.74556706 2.51075807,6.67230402 C2.72994865,6.59933773 2.92088496,6.49308336 3.08371678,6.35383846 C3.24639963,6.21429682 3.37592122,6.04518168 3.47228156,5.84589955 C3.56849374,5.64676619 3.6166739,5.42118122 3.6166739,5.16899507 L3.6166739,4.35254734 L3.59689616,4.35254734 Z M0.458486218,2.81922098 C0.564512783,2.60002133 0.709053288,2.42095105 0.89181101,2.28141503 C1.07442057,2.14201573 1.28870415,2.03932797 1.53451279,1.97275664 C1.7800235,1.90662762 2.05245021,1.87318916 2.35149578,1.87318916 C2.57722875,1.87318916 2.80311148,1.89488636 3.02884445,1.93798322 C3.25457822,1.98122483 3.45741161,2.06251294 3.63674877,2.18199231 C3.81608674,2.30132692 3.96196551,2.46909825 4.07498096,2.68472727 C4.18799641,2.90050909 4.24435597,3.18107692 4.24435597,3.5259965 L4.24435597,6.25427178 C4.24435597,6.50645794 4.36718541,6.6326258 4.61314301,6.6326258 C4.68600872,6.6326258 4.7524794,6.6194 4.81240769,6.59265003 L4.81240769,7.12035367 C4.73924485,7.13387703 4.67440957,7.14383378 4.61805081,7.15022392 C4.56139412,7.15691161 4.49001565,7.16032944 4.40376723,7.16032944 C4.24435597,7.16032944 4.11646977,7.13878101 4.0202584,7.09553699 C3.92389726,7.05244094 3.84909903,6.99091755 3.79616003,6.91141234 C3.74277494,6.83175916 3.70797828,6.73709647 3.69147214,6.62757304 C3.67466886,6.51804962 3.66663843,6.39708329 3.66663843,6.26407976 L3.64656356,6.26407976 C3.53354812,6.43007462 3.41904543,6.57793808 3.30290735,6.707375 C3.18647134,6.83666315 3.05709871,6.94455164 2.91434257,7.03074374 C2.77143746,7.11723339 2.60875461,7.18336322 2.42614505,7.23002587 C2.24338732,7.27624301 2.02598111,7.29972311 1.77348111,7.29972311 C1.53451279,7.29972311 1.31026626,7.27133902 1.10103863,7.21501636 C0.89181101,7.15869451 0.709053288,7.06908458 0.553062596,6.94618657 C0.396773811,6.82343734 0.273943894,6.66740003 0.184423716,6.4783714 C0.0947548946,6.28904601 0.0498460821,6.0649464 0.0498460821,5.80607336 C0.0498460821,5.44763283 0.129700433,5.16721136 0.289111769,4.96480895 C0.448523024,4.76240573 0.659237724,4.60815133 0.92170067,4.50174899 C1.1838673,4.39579217 1.47964047,4.32104056 1.80842593,4.27779895 C2.1372122,4.2347021 2.47090546,4.19323776 2.80980284,4.15341399 C2.94259603,4.14004021 3.05873411,4.12354615 3.15836604,4.10348147 C3.25799878,4.08356958 3.3409756,4.04879615 3.40759524,3.99900839 C3.4737688,3.94922867 3.52551769,3.88116958 3.56209951,3.79497587 C3.5983834,3.70878217 3.6166739,3.59584091 3.6166739,3.45644965 C3.6166739,3.24408566 3.58172828,3.06976818 3.51213417,2.93365 C3.4423919,2.79766853 3.3458826,2.68978566 3.22305316,2.60997727 C3.10022292,2.53032972 2.95731781,2.47564441 2.79463496,2.44576853 C2.63195211,2.41604545 2.45752194,2.40089441 2.27164078,2.40089441 C1.87311305,2.40089441 1.54759838,2.49555629 1.29524654,2.68472727 C1.04274655,2.87405909 0.910102322,3.17765909 0.896718808,3.59584091 L0.269036659,3.59584091 C0.289111769,3.29699371 0.352162446,3.03826783 0.458486218,2.81922098 L0.458486218,2.81922098 Z" id="Fill-36"></path>
                    <path d="M8.81258639,5.38292965 C8.87564294,5.6453693 8.97527246,5.87927689 9.111483,6.08509794 C9.24754859,6.29077021 9.42198278,6.45825042 9.63447959,6.58768654 C9.84697639,6.71727224 10.1027536,6.78191591 10.4016502,6.78191591 C10.7337057,6.78191591 11.0144607,6.71727224 11.2436094,6.58768654 C11.4727662,6.45825042 11.6586506,6.29077021 11.8015525,6.08509794 C11.9443094,5.87927689 12.0472081,5.6453693 12.1104096,5.38292965 C12.1734581,5.12078675 12.2049904,4.85700892 12.2049904,4.59144818 C12.2049904,4.32618741 12.1734581,4.06211364 12.1104096,3.79996993 C12.0472081,3.53782622 11.9443094,3.30376503 11.8015525,3.0979472 C11.6586506,2.89227413 11.4727662,2.72449476 11.2436094,2.59505944 C11.0144607,2.46562413 10.7337057,2.40098287 10.4016502,2.40098287 C10.1027536,2.40098287 9.84697639,2.46562413 9.63447959,2.59505944 C9.42198278,2.72449476 9.24754859,2.89227413 9.111483,3.0979472 C8.97527246,3.30376503 8.87564294,3.53782622 8.81258639,3.79996993 C8.74923996,4.06211364 8.7178687,4.32618741 8.7178687,4.59144818 C8.7178687,4.85700892 8.74923996,5.12078675 8.81258639,5.38292965 L8.81258639,5.38292965 Z M12.2548011,7.16026993 L12.2548011,6.18466462 L12.2348801,6.18466462 C12.1684094,6.3505099 12.0704064,6.50312937 11.9408872,6.64267182 C11.8113681,6.78191591 11.6635543,6.89976196 11.4977521,6.9959108 C11.3314989,7.09220762 11.1537955,7.16680885 10.964642,7.21986164 C10.7753435,7.27306241 10.5875266,7.2996636 10.4016502,7.2996636 C10.0098074,7.2996636 9.66942601,7.22833224 9.380345,7.08552073 C9.09140893,6.94300598 8.85065706,6.74714248 8.65808937,6.49807661 C8.4653687,6.24930829 8.32261175,5.960565 8.22966554,5.63199472 C8.13658243,5.30342444 8.09033076,4.95657559 8.09033076,4.59144818 C8.09033076,4.22646713 8.13658243,3.87947273 8.22966554,3.55090245 C8.32261175,3.22233217 8.4653687,2.93373846 8.65808937,2.68481573 C8.85065706,2.43575629 9.09140893,2.23840664 9.380345,2.09232448 C9.66942601,1.9463951 10.0098074,1.87327762 10.4016502,1.87327762 C10.594073,1.87327762 10.7817369,1.89660734 10.964642,1.94297727 C11.1471042,1.98948392 11.3182611,2.06096888 11.47767,2.15711853 C11.6370869,2.25326818 11.7782012,2.37096224 11.901182,2.51050629 C12.0240098,2.64989755 12.1185906,2.81261853 12.1852062,2.99837972 L12.2049904,2.99837972 L12.2049904,0.0512031469 L12.8326652,0.0512031469 L12.8326652,7.16026993 L12.2548011,7.16026993 Z" id="Fill-38"></path>
                    <path d="M14.6858403,7.1602249 L14.0580125,7.1602249 L14.0580125,2.02272937 L14.6858403,2.02272937 L14.6858403,7.1602249 Z M14.6858403,1.05678566 L14.0580125,1.05678566 L14.0580125,0.0511629371 L14.6858403,0.0511629371 L14.6858403,1.05678566 Z" id="Fill-39"></path>
                    <path d="M16.4891805,2.02272937 L16.4891805,2.88881608 L16.5190701,2.88881608 C16.6848724,2.57020175 16.902579,2.32143182 17.1717308,2.14206399 C17.4405928,1.96299371 17.7843964,1.87322937 18.2027067,1.87322937 C18.5415985,1.87322937 18.8486761,1.9563028 19.1243744,2.12229685 C19.3999277,2.28814615 19.5841695,2.54032587 19.6772606,2.8790049 C19.8301231,2.54032587 20.0560106,2.28814615 20.3549072,2.12229685 C20.6538038,1.9563028 20.9726215,1.87322937 21.3113764,1.87322937 C22.4471754,1.87322937 23.015079,2.4740521 23.015079,3.67539196 L23.015079,7.1602249 L22.3873961,7.1602249 L22.3873961,3.70525979 C22.3873961,3.28069266 22.2977271,2.95701993 22.1183892,2.73441049 C21.9389063,2.51224336 21.6235027,2.40093462 21.1718886,2.40093462 C20.8994595,2.40093462 20.6737249,2.45249965 20.494387,2.55534021 C20.315049,2.65832552 20.1721471,2.79593147 20.0659712,2.96846364 C19.9596503,3.1411486 19.8849986,3.33864301 19.8417262,3.56096294 C19.7984539,3.78342762 19.7768902,4.01391818 19.7768902,4.25302168 L19.7768902,7.1602249 L19.1493603,7.1602249 L19.1493603,3.67539196 C19.1493603,3.50300455 19.1310657,3.33864301 19.0944847,3.1826049 C19.0579037,3.02671958 18.9981244,2.89059336 18.9151468,2.77438706 C18.8321691,2.65832552 18.7209364,2.56692867 18.5814567,2.5005021 C18.441969,2.43437308 18.2724466,2.40093462 18.0731795,2.40093462 C17.8074498,2.40093462 17.5766584,2.44908182 17.3808135,2.54538427 C17.1848237,2.64167867 17.0254068,2.77438706 16.902579,2.94364615 C16.7795981,3.11291329 16.6884476,3.31204825 16.6286682,3.54105105 C16.5687359,3.77005385 16.5389993,4.02060105 16.5389993,4.2927007 L16.5389993,7.1602249 L15.9111634,7.1602249 L15.9111634,2.02272937 L16.4891805,2.02272937 Z" id="Fill-40"></path>
                    <path d="M27.8023446,3.54595664 C27.7257604,3.32690979 27.6179498,3.13282517 27.4784621,2.96341329 C27.3389743,2.79414615 27.1696049,2.65832552 26.9701929,2.55534021 C26.7709258,2.45249965 26.5451912,2.40093462 26.2929892,2.40093462 C26.0337978,2.40093462 25.8046411,2.45249965 25.605527,2.55534021 C25.406115,2.65832552 25.2367456,2.79414615 25.0972578,2.96341329 C24.95777,3.13282517 24.8465373,3.32854231 24.7634148,3.5508542 C24.6804371,3.77347168 24.6255697,4.00084196 24.5990941,4.23296503 L27.926807,4.23296503 C27.9201156,3.99415105 27.8784779,3.76514825 27.8023446,3.54595664 M24.6938199,5.46268657 C24.7568684,5.70506476 24.8581405,5.92232871 24.9976283,6.11477437 C25.137108,6.30736962 25.3130238,6.46667598 25.5255287,6.59269507 C25.7381704,6.71901091 25.9939476,6.78187168 26.2929892,6.78187168 C26.7512946,6.78187168 27.1098256,6.6623915 27.368864,6.42343115 C27.6279104,6.18461958 27.8072483,5.86585808 27.9068779,5.46773934 L28.5345607,5.46773934 C28.4014744,6.05176563 28.1575983,6.50308514 27.8023446,6.82169867 C27.4467929,7.14046017 26.9438704,7.29976734 26.2929892,7.29976734 C25.8876187,7.29976734 25.5372768,7.2282872 25.2416493,7.0854757 C24.9461749,6.94296175 24.70527,6.74709745 24.5193937,6.49803238 C24.3333644,6.24926406 24.1956642,5.96052077 24.1059952,5.63195049 C24.0161733,5.30338021 23.9714112,4.95653136 23.9714112,4.59140395 C23.9714112,4.25302168 24.0161733,3.92103357 24.1059952,3.59588112 C24.1956642,3.27058392 24.3333644,2.9802049 24.5193937,2.7245993 C24.70527,2.4691465 24.9461749,2.26332867 25.2416493,2.10713776 C25.5372768,1.9513972 25.8876187,1.87322937 26.2929892,1.87322937 C26.7046081,1.87322937 27.0564397,1.9563028 27.3489429,2.12229685 C27.6411481,2.28814615 27.8784779,2.50555245 28.0613829,2.77438706 C28.2438451,3.04321364 28.3751519,3.35172727 28.4550053,3.7003542 C28.5345607,4.04883636 28.5675746,4.40222654 28.5546348,4.76066706 L24.5990941,4.76066706 C24.5990941,4.98640161 24.6304734,5.22045717 24.6938199,5.46268657" id="Fill-41"></path>
                    <path d="M30.0390043,2.02272937 L30.0390043,2.90887273 L30.0590784,2.90887273 C30.1784921,2.5967965 30.3909889,2.3462493 30.6965768,2.15707028 C31.0021648,1.96789126 31.3374975,1.87322937 31.7028648,1.87322937 C32.0616856,1.87322937 32.3619189,1.91974406 32.6044584,2.01262867 C32.8469978,2.1058028 33.0412001,2.23657308 33.1873792,2.40584021 C33.3334053,2.5752521 33.43661,2.78271049 33.4962364,3.02820734 C33.5560157,3.27400175 33.5859053,3.54937448 33.5859053,3.85460699 L33.5859053,7.1602249 L32.9582225,7.1602249 L32.9582225,3.95417448 C32.9582225,3.73512762 32.9383014,3.5310951 32.8984512,3.34191608 C32.8585929,3.15273706 32.7888531,2.98837552 32.6892236,2.84913706 C32.589586,2.70959301 32.455155,2.60006958 32.2857856,2.52056678 C32.1164082,2.44075839 31.905401,2.40093462 31.653046,2.40093462 C31.400546,2.40093462 31.1763011,2.44581678 30.9806011,2.53527552 C30.7846112,2.62503182 30.618358,2.74793706 30.4822925,2.90382238 C30.3460819,3.05986049 30.239906,3.24576643 30.1636197,3.46139545 C30.0871885,3.67716923 30.0455507,3.91107762 30.0390043,4.16326538 L30.0390043,7.1602249 L29.4113214,7.1602249 L29.4113214,2.02272937 L30.0390043,2.02272937 Z" id="Fill-42"></path>
                    <path d="M37.7504401,3.02321329 C37.6772781,2.88070175 37.5794281,2.7628549 37.4564473,2.66982552 C37.3333215,2.57694895 37.1924971,2.50888182 37.0330883,2.46564021 C36.8736794,2.42268811 36.704302,2.40084615 36.524964,2.40084615 C36.3853313,2.40084615 36.244209,2.41600524 36.101452,2.44572832 C35.9585501,2.47559615 35.8273883,2.52537587 35.7079827,2.59507552 C35.588424,2.66477517 35.4919107,2.75616399 35.4190466,2.86896049 C35.3458846,2.98190175 35.3093036,3.12129301 35.3093036,3.28698951 C35.3093036,3.42653357 35.344105,3.54452517 35.4139898,3.64053007 C35.4837377,3.73696923 35.5717721,3.81825734 35.67794,3.88453916 C35.784116,3.95082098 35.9005584,4.00565105 36.0266554,4.0487479 C36.1527605,4.09199755 36.2691949,4.12691573 36.3755157,4.15336573 L37.2122813,4.34254476 C37.3917642,4.36914675 37.5693146,4.41729556 37.7455283,4.48699199 C37.9211542,4.55654045 38.0774388,4.64808206 38.2136574,4.7605778 C38.3497149,4.87351906 38.4609476,5.01321028 38.5473474,5.17890678 C38.6335943,5.34490084 38.6768666,5.54076514 38.6768666,5.76635091 C38.6768666,6.04513745 38.6138181,6.28261164 38.4875681,6.47832717 C38.3613181,6.67404269 38.2002666,6.83334906 38.0044298,6.95609829 C37.8085849,7.07914507 37.5874561,7.16682332 37.3418005,7.21987612 C37.0961368,7.27307769 36.8537503,7.29967808 36.6144881,7.29967808 C36.0101485,7.29967808 35.5201658,7.15686657 35.1449829,6.87154112 C34.7696551,6.58636444 34.5555237,6.12835724 34.5024357,5.49752031 L35.1301186,5.49752031 C35.1565861,5.92238822 35.3110911,6.24263587 35.5933278,6.4582649 C35.8757175,6.67404269 36.2259225,6.78193119 36.6443777,6.78193119 C36.7972402,6.78193119 36.9548695,6.76543552 37.1177005,6.73214745 C37.2803866,6.69886017 37.4314695,6.64253752 37.5709492,6.56273556 C37.7104369,6.48323115 37.8250918,6.38217832 37.9147608,6.25913154 C38.0044298,6.13638231 38.0493367,5.98554573 38.0493367,5.8061771 C38.0493367,5.65340885 38.0176595,5.52575563 37.954611,5.42277112 C37.8914095,5.31993458 37.8067973,5.23374248 37.7004764,5.16389727 C37.5941475,5.09434962 37.4731072,5.03624406 37.3368887,4.9895814 C37.2006781,4.94336427 37.0629779,4.9033893 36.9233452,4.87025 L36.1164774,4.69103014 C35.9105189,4.63782857 35.7212204,4.57645395 35.5484208,4.50675671 C35.3757742,4.43706028 35.2248443,4.35101696 35.0953171,4.24788287 C34.9656449,4.14505035 34.8643808,4.01888007 34.7913637,3.86953287 C34.7180568,3.72017762 34.6816207,3.53605699 34.6816207,3.31701014 C34.6816207,3.05798671 34.7397654,2.83566678 34.8560549,2.64991364 C34.9720464,2.46415245 35.1234272,2.31465245 35.3093036,2.20186399 C35.4951879,2.08906748 35.702781,2.00614685 35.9319297,1.95294126 C36.1610864,1.89988846 36.3887535,1.87329371 36.6144881,1.87329371 C36.8736794,1.87329371 37.1144313,1.90657937 37.3368887,1.97286119 C37.5593541,2.03928776 37.7553439,2.14197552 37.9247213,2.28151154 C38.0940988,2.42091084 38.2285217,2.59358776 38.3283042,2.79911608 C38.4279337,3.00508671 38.4842989,3.24731049 38.4975287,3.52610105 L37.8699988,3.52610105 C37.8633074,3.33365699 37.8233042,3.16602238 37.7504401,3.02321329" id="Fill-43"></path>
                    <path d="M40.241017,7.1602249 L39.6133342,7.1602249 L39.6133342,2.02272937 L40.241017,2.02272937 L40.241017,7.1602249 Z M40.241017,1.05678566 L39.6133342,1.05678566 L39.6133342,0.0511629371 L40.241017,0.0511629371 L40.241017,1.05678566 Z" id="Fill-44"></path>
                    <path d="M42.8514264,2.59015385 C42.6253939,2.71647692 42.4380198,2.88231818 42.2885796,3.08799126 C42.1389783,3.29366434 42.0259661,3.52787028 41.9498247,3.78986119 C41.8732405,4.05214965 41.8351779,4.31935175 41.8351779,4.59144818 C41.8351779,4.86369661 41.8732405,5.13089227 41.9498247,5.3928864 C42.0259661,5.65517727 42.1389783,5.88923364 42.2885796,6.09490591 C42.4380198,6.30072696 42.6253939,6.46672101 42.8514264,6.5927393 C43.0771529,6.71890717 43.3396215,6.78191591 43.6385181,6.78191591 C43.9374147,6.78191591 44.1995773,6.71890717 44.4256098,6.5927393 C44.6513444,6.46672101 44.8391532,6.30072696 44.9884566,6.09490591 C45.1380498,5.88923364 45.2507722,5.65517727 45.3272034,5.3928864 C45.4034897,5.13089227 45.4418583,4.86369661 45.4418583,4.59144818 C45.4418583,4.31935175 45.4034897,4.05214965 45.3272034,3.78986119 C45.2507722,3.52787028 45.1380498,3.29366434 44.9884566,3.08799126 C44.8391532,2.88231818 44.6513444,2.71647692 44.4256098,2.59015385 C44.1995773,2.46413636 43.9374147,2.40098287 43.6385181,2.40098287 C43.3396215,2.40098287 43.0771529,2.46413636 42.8514264,2.59015385 M44.6797444,2.09232448 C44.9817652,2.23840664 45.2358998,2.43426853 45.4418583,2.67991818 C45.6478087,2.92541503 45.8038034,3.21252098 45.9099793,3.5409465 C46.0163002,3.86951678 46.0695411,4.21978427 46.0695411,4.59144818 C46.0695411,4.96326329 46.0163002,5.31323241 45.9099793,5.64180269 C45.8038034,5.97037297 45.6478087,6.25777888 45.4418583,6.50312937 C45.2358998,6.74877661 44.9817652,6.94300598 44.6797444,7.08552073 C44.3774256,7.22833224 44.0303529,7.2996636 43.6385181,7.2996636 C43.2463854,7.2996636 42.8994576,7.22833224 42.5972837,7.08552073 C42.294973,6.94300598 42.0409834,6.74877661 41.8351779,6.50312937 C41.6292195,6.25777888 41.4729349,5.97037297 41.3670569,5.64180269 C41.260583,5.31323241 41.207495,4.96326329 41.207495,4.59144818 C41.207495,4.21978427 41.260583,3.86951678 41.3670569,3.5409465 C41.4729349,3.21252098 41.6292195,2.92541503 41.8351779,2.67991818 C42.0409834,2.43426853 42.294973,2.23840664 42.5972837,2.09232448 C42.8994576,1.9463951 43.2463854,1.87327762 43.6385181,1.87327762 C44.0303529,1.87327762 44.3774256,1.9463951 44.6797444,2.09232448" id="Fill-45"></path>
                    <path d="M47.6436521,2.02272937 L47.6436521,2.90887273 L47.6637262,2.90887273 C47.7831318,2.5967965 47.9956367,2.3462493 48.3012246,2.15707028 C48.6068126,1.96789126 48.9421372,1.87322937 49.3075045,1.87322937 C49.6663334,1.87322937 49.9665667,1.91974406 50.2090981,2.01262867 C50.4516376,2.1058028 50.6458479,2.23657308 50.792027,2.40584021 C50.9380531,2.5752521 51.0412498,2.78271049 51.1008841,3.02820734 C51.1606635,3.27400175 51.1905531,3.54937448 51.1905531,3.85460699 L51.1905531,7.1602249 L50.5628703,7.1602249 L50.5628703,3.95417448 C50.5628703,3.73512762 50.5429411,3.5310951 50.5030909,3.34191608 C50.4632407,3.15273706 50.3934928,2.98837552 50.2938633,2.84913706 C50.1942338,2.70959301 50.0598028,2.60006958 49.8904254,2.52056678 C49.721056,2.44075839 49.5100408,2.40093462 49.2576857,2.40093462 C49.0051857,2.40093462 48.7809408,2.44581678 48.5852489,2.53527552 C48.389251,2.62503182 48.2230058,2.74793706 48.0869402,2.90382238 C47.9507217,3.05986049 47.8445538,3.24576643 47.7682675,3.46139545 C47.6918282,3.67716923 47.6501905,3.91107762 47.6436521,4.16326538 L47.6436521,7.1602249 L47.0159692,7.1602249 L47.0159692,2.02272937 L47.6436521,2.02272937 Z" id="Fill-46"></path>
                    <path d="M55.6888021,5.38292965 C55.7518587,5.6453693 55.8514882,5.87927689 55.9876987,6.08509794 C56.1239173,6.29077021 56.2981985,6.45825042 56.5106953,6.58768654 C56.7233451,6.71727224 56.9791143,6.78191591 57.2780109,6.78191591 C57.6100664,6.78191591 57.8906765,6.71727224 58.1198252,6.58768654 C58.3489819,6.45825042 58.5348582,6.29077021 58.6777682,6.08509794 C58.8206701,5.87927689 58.9234238,5.6453693 58.9867783,5.38292965 C59.0498268,5.12078675 59.0812061,4.85700892 59.0812061,4.59144818 C59.0812061,4.32618741 59.0498268,4.06211364 58.9867783,3.79996993 C58.9234238,3.53782622 58.8206701,3.30376503 58.6777682,3.0979472 C58.5348582,2.89227413 58.3489819,2.72449476 58.1198252,2.59505944 C57.8906765,2.46562413 57.6100664,2.40098287 57.2780109,2.40098287 C56.9791143,2.40098287 56.7233451,2.46562413 56.5106953,2.59505944 C56.2981985,2.72449476 56.1239173,2.89227413 55.9876987,3.0979472 C55.8514882,3.30376503 55.7518587,3.53782622 55.6888021,3.79996993 C55.6256087,4.06211364 55.5940764,4.32618741 55.5940764,4.59144818 C55.5940764,4.85700892 55.6256087,5.12078675 55.6888021,5.38292965 L55.6888021,5.38292965 Z M59.1310169,7.16026993 L59.1310169,6.18466462 L59.1112407,6.18466462 C59.0447701,6.3505099 58.9467751,6.50312937 58.8172479,6.64267182 C58.6877287,6.78191591 58.539915,6.89976196 58.3739598,6.9959108 C58.2077146,7.09220762 58.0301562,7.16680885 57.8410026,7.21986164 C57.6515592,7.27306241 57.4638953,7.2996636 57.2780109,7.2996636 C56.8860231,7.2996636 56.5456417,7.22833224 56.2567057,7.08552073 C55.9677777,6.94300598 55.7270258,6.74714248 55.53445,6.49807661 C55.3417294,6.24930829 55.1988275,5.960565 55.1058813,5.63199472 C55.0129431,5.30342444 54.9665465,4.95657559 54.9665465,4.59144818 C54.9665465,4.22646713 55.0129431,3.87947273 55.1058813,3.55090245 C55.1988275,3.22233217 55.3417294,2.93373846 55.53445,2.68481573 C55.7270258,2.43575629 55.9677777,2.23840664 56.2567057,2.09232448 C56.5456417,1.9463951 56.8860231,1.87327762 57.2780109,1.87327762 C57.4704336,1.87327762 57.6580976,1.89660734 57.8410026,1.94297727 C58.0234648,1.98948392 58.1946298,2.06096888 58.3540387,2.15711853 C58.5133026,2.25326818 58.6544169,2.37096224 58.7773977,2.51050629 C58.9002255,2.64989755 58.9948063,2.81261853 59.061422,2.99837972 L59.0812061,2.99837972 L59.0812061,0.0512031469 L59.709034,0.0512031469 L59.709034,7.16026993 L59.1310169,7.16026993 Z" id="Fill-47"></path>
                    <path d="M64.1924186,4.35254734 C64.1524154,4.42566241 64.0761292,4.47871521 63.9632619,4.51185451 C63.8500967,4.54499381 63.7504672,4.56817636 63.6642203,4.58155094 C63.3986275,4.62806483 63.1245719,4.66952675 62.8423271,4.7059351 C62.5599375,4.74249224 62.3026787,4.79717997 62.0702527,4.87014626 C61.8376819,4.9434093 61.6468937,5.04802874 61.4972924,5.1838558 C61.3479971,5.31997962 61.2732005,5.51406021 61.2732005,5.76639514 C61.2732005,5.9257015 61.3047247,6.0667301 61.3677732,6.18947934 C61.4308217,6.31237734 61.5155869,6.41848294 61.6219078,6.50809287 C61.7280838,6.59755402 61.8510646,6.6657651 61.9903993,6.71227899 C62.1300321,6.75864409 62.272789,6.78197542 62.4188151,6.78197542 C62.6582303,6.78197542 62.8873871,6.74556706 63.1062773,6.67230402 C63.3256185,6.59933773 63.5164066,6.49308336 63.6793826,6.35383846 C63.8420687,6.21429682 63.9715878,6.04518168 64.0679482,5.84589955 C64.1641636,5.64676619 64.2123397,5.42118122 64.2123397,5.16899507 L64.2123397,4.35254734 L64.1924186,4.35254734 Z M61.0541573,2.81922098 C61.1600353,2.60002133 61.3047247,2.42095105 61.4874768,2.28141503 C61.670092,2.14201573 61.8842234,2.03932797 62.1300321,1.97275664 C62.3755428,1.90662762 62.6479719,1.87318916 62.9470134,1.87318916 C63.172901,1.87318916 63.3986275,1.89488636 63.6245151,1.93798322 C63.8500967,1.98122483 64.0529309,2.06251294 64.2324218,2.18199231 C64.4116068,2.30132692 64.5576329,2.46909825 64.6706532,2.68472727 C64.7836654,2.90050909 64.8398776,3.18107692 64.8398776,3.5259965 L64.8398776,6.25427178 C64.8398776,6.50645794 64.9628585,6.6326258 65.2086671,6.6326258 C65.2816761,6.6326258 65.3481468,6.6194 65.4079261,6.59265003 L65.4079261,7.12035367 C65.3347641,7.13387703 65.270081,7.14383378 65.2135709,7.15022392 C65.1570607,7.15691161 65.0856863,7.16032944 64.9994395,7.16032944 C64.8398776,7.16032944 64.7119931,7.13878101 64.6157777,7.09553699 C64.5194173,7.05244094 64.4446207,6.99091755 64.3916777,6.91141234 C64.3382918,6.83175916 64.3034983,6.73709647 64.2869914,6.62757304 C64.2703395,6.51804962 64.2621585,6.39708329 64.2621585,6.26407976 L64.2422294,6.26407976 C64.1292171,6.43007462 64.0145623,6.57793808 63.8984258,6.707375 C63.7821444,6.83666315 63.6526172,6.94455164 63.5100132,7.03074374 C63.3669583,7.11723339 63.2042723,7.18336322 63.02181,7.23002587 C62.838905,7.27624301 62.6216493,7.29972311 62.3691493,7.29972311 C62.1300321,7.29972311 61.9059321,7.27133902 61.6965595,7.21501636 C61.4874768,7.15869451 61.3047247,7.06908458 61.1485851,6.94618657 C60.9924454,6.82343734 60.8696095,6.66740003 60.7799406,6.4783714 C60.6902716,6.28904601 60.6453646,6.0649464 60.6453646,5.80607336 C60.6453646,5.44763283 60.725371,5.16721136 60.8846349,4.96480895 C61.0440437,4.76240573 61.254761,4.60815133 61.5173665,4.50174899 C61.7795371,4.39579217 62.0753095,4.32104056 62.4040958,4.27779895 C62.732882,4.2347021 63.0665721,4.19323776 63.4053269,4.15341399 C63.5382683,4.14004021 63.6544047,4.12354615 63.7540343,4.10348147 C63.8536638,4.08356958 63.9366414,4.04879615 64.0032651,3.99900839 C64.0694378,3.94922867 64.1210361,3.88116958 64.1576172,3.79497587 C64.1940532,3.70878217 64.2123397,3.59584091 64.2123397,3.45644965 C64.2123397,3.24408566 64.1773933,3.06976818 64.1078064,2.93365 C64.0380585,2.79766853 63.9415532,2.68978566 63.8187254,2.60997727 C63.6957446,2.53032972 63.5529876,2.47564441 63.3903016,2.44576853 C63.2274706,2.41604545 63.0531894,2.40089441 62.867313,2.40089441 C62.4687789,2.40089441 62.1432698,2.49555629 61.8907698,2.68472727 C61.6384148,2.87405909 61.5057713,3.17765909 61.4923886,3.59584091 L60.8647058,3.59584091 C60.8846349,3.29699371 60.9476834,3.03826783 61.0541573,2.81922098 L61.0541573,2.81922098 Z" id="Fill-48"></path>
                    <path d="M68.1576219,2.02272937 L68.1576219,2.55043462 L67.1116368,2.55043462 L67.1116368,6.01520769 C67.1116368,6.22117752 67.1397389,6.38211881 67.196249,6.49803238 C67.2526062,6.61439147 67.3937285,6.67918392 67.619761,6.69226175 C67.798946,6.69226175 67.978437,6.682305 68.1576219,6.6623915 L68.1576219,7.19009514 C68.0646838,7.19009514 67.9717456,7.19351297 67.8787994,7.20020066 C67.7855633,7.2065908 67.6926251,7.21000864 67.599687,7.21000864 C67.1813767,7.21000864 66.8890265,7.12872052 66.7230712,6.9661443 C66.556818,6.80356808 66.4771096,6.50308514 66.483809,6.06499143 L66.483809,2.55043462 L65.5872641,2.55043462 L65.5872641,2.02272937 L66.483809,2.02272937 L66.483809,0.479300699 L67.1116368,0.479300699 L67.1116368,2.02272937 L68.1576219,2.02272937 Z" id="Fill-49"></path>
                    <path d="M72.352135,4.35254734 C72.3122767,4.42566241 72.2358455,4.47871521 72.1229782,4.51185451 C72.009966,4.54499381 71.9103284,4.56817636 71.8240816,4.58155094 C71.5583519,4.62806483 71.2842882,4.66952675 71.0021965,4.7059351 C70.7196538,4.74249224 70.462395,4.79717997 70.2299691,4.87014626 C69.9973982,4.9434093 69.806457,5.04802874 69.6571617,5.1838558 C69.5075604,5.31997962 69.4329168,5.51406021 69.4329168,5.76639514 C69.4329168,5.9257015 69.4642881,6.0667301 69.5276425,6.18947934 C69.590691,6.31237734 69.6753033,6.41848294 69.7816241,6.50809287 C69.8878001,6.59755402 70.0107809,6.6657651 70.1502687,6.71227899 C70.2897484,6.75864409 70.4325053,6.78197542 70.5786844,6.78197542 C70.8178017,6.78197542 71.0469504,6.74556706 71.2661466,6.67230402 C71.4853348,6.59933773 71.6762679,6.49308336 71.838954,6.35383846 C72.001785,6.21429682 72.1311592,6.04518168 72.2275196,5.84589955 C72.3238799,5.64676619 72.372056,5.42118122 72.372056,5.16899507 L72.372056,4.35254734 L72.352135,4.35254734 Z M69.2137206,2.81922098 C69.3198965,2.60002133 69.4642881,2.42095105 69.6472012,2.28141503 C69.8296553,2.14201573 70.0440927,2.03932797 70.2897484,1.97275664 C70.5354121,1.90662762 70.8078331,1.87318916 71.1067297,1.87318916 C71.3324643,1.87318916 71.5583519,1.89488636 71.7842314,1.93798322 C72.009966,1.98122483 72.2126472,2.06251294 72.3919852,2.18199231 C72.5714761,2.30132692 72.7173493,2.46909825 72.8303695,2.68472727 C72.9432368,2.90050909 72.9997389,3.18107692 72.9997389,3.5259965 L72.9997389,6.25427178 C72.9997389,6.50645794 73.1225748,6.6326258 73.3683834,6.6326258 C73.4412475,6.6326258 73.5077182,6.6194 73.5676425,6.59265003 L73.5676425,7.12035367 C73.4944804,7.13387703 73.4296443,7.14383378 73.3732872,7.15022392 C73.3167771,7.15691161 73.2454026,7.16032944 73.1591558,7.16032944 C72.9997389,7.16032944 72.8717094,7.13878101 72.775647,7.09553699 C72.6791336,7.05244094 72.604482,6.99091755 72.551394,6.91141234 C72.4981611,6.83175916 72.4633677,6.73709647 72.4468607,6.62757304 C72.4300558,6.51804962 72.4218748,6.39708329 72.4218748,6.26407976 L72.4019457,6.26407976 C72.2887885,6.43007462 72.1744316,6.57793808 72.0581421,6.707375 C71.9418607,6.83666315 71.8124865,6.94455164 71.6695765,7.03074374 C71.5266746,7.11723339 71.3639886,7.18336322 71.1813814,7.23002587 C70.9986213,7.27624301 70.7812207,7.29972311 70.5287207,7.29972311 C70.2897484,7.29972311 70.0655034,7.27133902 69.8564208,7.21501636 C69.6472012,7.15869451 69.4642881,7.06908458 69.3083014,6.94618657 C69.1521617,6.82343734 69.0293259,6.66740003 68.9398099,6.4783714 C68.8499959,6.28904601 68.8052339,6.0649464 68.8052339,5.80607336 C68.8052339,5.44763283 68.8849343,5.16721136 69.0443512,4.96480895 C69.2037601,4.76240573 69.4146223,4.60815133 69.6769379,4.50174899 C69.9392535,4.39579217 70.2348809,4.32104056 70.5638121,4.27779895 C70.8925983,4.2347021 71.2262884,4.19323776 71.5650432,4.15341399 C71.6978316,4.14004021 71.8141211,4.12354615 71.9137506,4.10348147 C72.0133882,4.08356958 72.0962128,4.04879615 72.1628365,3.99900839 C72.2291541,3.94922867 72.2807525,3.88116958 72.3173335,3.79497587 C72.3536166,3.70878217 72.372056,3.59584091 72.372056,3.45644965 C72.372056,3.24408566 72.3371177,3.06976818 72.2673697,2.93365 C72.1976299,2.79766853 72.1012696,2.68978566 71.9784417,2.60997727 C71.8554609,2.53032972 71.712704,2.47564441 71.5500179,2.44576853 C71.3873399,2.41604545 71.2129057,2.40089441 71.0270294,2.40089441 C70.6283502,2.40089441 70.3029861,2.49555629 70.0506311,2.68472727 C69.7979862,2.87405909 69.6653427,3.17765909 69.652105,3.59584091 L69.0244221,3.59584091 C69.0443512,3.29699371 69.1073997,3.03826783 69.2137206,2.81922098 L69.2137206,2.81922098 Z" id="Fill-50"></path>
                    <path d="M80.213156,2.72947273 C79.9805771,2.51042587 79.6552049,2.40090245 79.2367497,2.40090245 C78.9378611,2.40090245 78.6752476,2.46420874 78.4496579,2.59008147 C78.2236254,2.7163965 78.0361145,2.8822458 77.8866662,3.08791888 C77.7372179,3.29373671 77.6241976,3.52778986 77.5479194,3.78993357 C77.4713352,4.05207727 77.4334095,4.31927133 77.4334095,4.5913742 C77.4334095,4.86362182 77.4713352,5.13081748 77.5479194,5.39296038 C77.6241976,5.65525206 77.7372179,5.88930762 77.8866662,6.09483192 C78.0361145,6.30065217 78.2236254,6.46664622 78.4496579,6.59266531 C78.6752476,6.71898115 78.9378611,6.7819907 79.2367497,6.7819907 C79.4293254,6.7819907 79.6119325,6.74543357 79.7847321,6.6723185 C79.9572258,6.5993522 80.1100962,6.49800262 80.2430295,6.3685657 C80.3758098,6.23927755 80.4852389,6.08502315 80.5717997,5.90565451 C80.6580385,5.72658343 80.7113438,5.5308679 80.7310717,5.31821119 L81.3588995,5.31821119 C81.2723386,5.94221245 81.0432543,6.42845416 80.6714856,6.77693794 C80.2993947,7.12542171 79.8210152,7.29973759 79.2367497,7.29973759 C78.844617,7.29973759 78.4976891,7.22825745 78.1955234,7.08559472 C77.8930596,6.94308077 77.63907,6.7488514 77.4334095,6.50320336 C77.2274591,6.2577049 77.0711664,5.97044776 76.9651435,5.64187748 C76.8586696,5.3133072 76.8057347,4.9631885 76.8057347,4.5913742 C76.8057347,4.21970385 76.8586696,3.86958916 76.9651435,3.54101888 C77.0711664,3.2124486 77.2274591,2.92534266 77.4334095,2.67983776 C77.63907,2.43434091 77.8930596,2.23832622 78.1955234,2.09239685 C78.4976891,1.94631469 78.844617,1.87320524 79.2367497,1.87320524 C79.7880013,1.87320524 80.2544636,2.01943217 80.6366197,2.31144371 C81.0183731,2.60345524 81.2459275,3.04496678 81.3190412,3.63568077 L80.6913744,3.63568077 C80.6049746,3.25079266 80.4455416,2.94867238 80.213156,2.72947273" id="Fill-51"></path>
                    <path d="M83.6404823,2.59015385 C83.4146189,2.71647692 83.2270838,2.88231818 83.0774744,3.08799126 C82.9281872,3.29366434 82.8150542,3.52787028 82.7388806,3.78986119 C82.6624655,4.05214965 82.6242177,4.31935175 82.6242177,4.59144818 C82.6242177,4.86369661 82.6624655,5.13089227 82.7388806,5.3928864 C82.8150542,5.65517727 82.9281872,5.88923364 83.0774744,6.09490591 C83.2270838,6.30072696 83.4146189,6.46672101 83.6404823,6.5927393 C83.8663457,6.71890717 84.1286854,6.78191591 84.427582,6.78191591 C84.7266397,6.78191591 84.9888184,6.71890717 85.2146818,6.5927393 C85.4403842,6.46672101 85.6280803,6.30072696 85.7776896,6.09490591 C85.9269769,5.88923364 86.0399489,5.65517727 86.1162834,5.3928864 C86.1926985,5.13089227 86.2309464,4.86369661 86.2309464,4.59144818 C86.2309464,4.31935175 86.1926985,4.05214965 86.1162834,3.78986119 C86.0399489,3.52787028 85.9269769,3.29366434 85.7776896,3.08799126 C85.6280803,2.88231818 85.4403842,2.71647692 85.2146818,2.59015385 C84.9888184,2.46413636 84.7266397,2.40098287 84.427582,2.40098287 C84.1286854,2.40098287 83.8663457,2.46413636 83.6404823,2.59015385 M85.4686473,2.09232448 C85.7709258,2.23840664 86.0249718,2.43426853 86.2309464,2.67991818 C86.4366793,2.92541503 86.5928915,3.21252098 86.6991801,3.5409465 C86.8053883,3.86951678 86.8587742,4.21978427 86.8587742,4.59144818 C86.8587742,4.96326329 86.8053883,5.31323241 86.6991801,5.64180269 C86.5928915,5.97037297 86.4366793,6.25777888 86.2309464,6.50312937 C86.0249718,6.74877661 85.7709258,6.94300598 85.4686473,7.08552073 C85.1663688,7.22833224 84.8194007,7.2996636 84.427582,7.2996636 C84.0356023,7.2996636 83.6884732,7.22833224 83.3865168,7.08552073 C83.0841577,6.94300598 82.8300312,6.74877661 82.6242177,6.50312937 C82.4181626,6.25777888 82.2621115,5.97037297 82.1559839,5.64180269 C82.0496147,5.31323241 81.9963899,4.96326329 81.9963899,4.59144818 C81.9963899,4.21978427 82.0496147,3.86951678 82.1559839,3.5409465 C82.2621115,3.21252098 82.4181626,2.92541503 82.6242177,2.67991818 C82.8300312,2.43426853 83.0841577,2.23840664 83.3865168,2.09232448 C83.6884732,1.9463951 84.0356023,1.87327762 84.427582,1.87327762 C84.8194007,1.87327762 85.1663688,1.9463951 85.4686473,2.09232448" id="Fill-52"></path>
                    <path d="M88.3927934,2.02272937 L88.3927934,2.88881608 L88.4226669,2.88881608 C88.5887832,2.57020175 88.8063529,2.32143182 89.0752954,2.14206399 C89.3443185,1.96299371 89.6881462,1.87322937 90.1066176,1.87322937 C90.4453724,1.87322937 90.7524017,1.9563028 91.0282691,2.12229685 C91.3036534,2.28814615 91.4878871,2.54032587 91.5811312,2.8790049 C91.7338809,2.54032587 91.9595833,2.28814615 92.2584799,2.12229685 C92.5575375,1.9563028 92.8762425,1.87322937 93.2150779,1.87322937 C94.3507561,1.87322937 94.9188368,2.4740521 94.9188368,3.67539196 L94.9188368,7.1602249 L94.291009,7.1602249 L94.291009,3.70525979 C94.291009,3.28069266 94.2014689,2.95701993 94.021986,2.73441049 C93.8428251,2.51224336 93.5270995,2.40093462 93.0754532,2.40093462 C92.8030482,2.40093462 92.5775069,2.45249965 92.3981045,2.55534021 C92.2187827,2.65832552 92.0758566,2.79593147 91.969729,2.96846364 C91.8633598,3.1411486 91.7885551,3.33864301 91.7456371,3.56096294 C91.7023164,3.78342762 91.6808171,4.01391818 91.6808171,4.25302168 L91.6808171,7.1602249 L91.0530698,7.1602249 L91.0530698,3.67539196 C91.0530698,3.50300455 91.0346303,3.33864301 90.9982345,3.1826049 C90.9616777,3.02671958 90.90185,2.89059336 90.8189127,2.77438706 C90.7357337,2.65832552 90.6246943,2.56692867 90.4850696,2.5005021 C90.3456865,2.43437308 90.1763494,2.40093462 89.9770581,2.40093462 C89.7113365,2.40093462 89.4804002,2.44908182 89.2845714,2.54538427 C89.0887426,2.64167867 88.9291485,2.77438706 88.8063529,2.94364615 C88.6833157,3.11291329 88.5921651,3.31204825 88.532418,3.54105105 C88.4725904,3.77005385 88.4427168,4.02060105 88.4427168,4.2927007 L88.4427168,7.1602249 L87.8150501,7.1602249 L87.8150501,2.02272937 L88.3927934,2.02272937 Z" id="Fill-53"></path>
                    <path d="M100.154359,3.79990559 C100.091149,3.53776189 99.9915438,3.30370874 99.8554621,3.09789091 C99.7192999,2.89236259 99.5449704,2.72458322 99.3324736,2.5951479 C99.1198157,2.46556783 98.8642398,2.40091853 98.5653432,2.40091853 C98.219744,2.40091853 97.9309126,2.46066224 97.6983659,2.58028636 C97.4659802,2.69962098 97.2800556,2.85892413 97.1404309,3.05805909 C97.0011284,3.25719406 96.9029724,3.48961469 96.8466072,3.75503147 C96.790242,4.02059301 96.7619789,4.29937552 96.7619789,4.59138867 C96.7619789,4.85694941 96.7933824,5.12087601 96.8565114,5.38287014 C96.9196404,5.64530979 97.0224666,5.87921738 97.1653927,6.08503843 C97.3081577,6.29085948 97.4941628,6.45833888 97.7233276,6.5877758 C97.9524924,6.71721273 98.2331106,6.7818572 98.5653432,6.7818572 C98.8642398,6.7818572 99.1198157,6.71721273 99.3324736,6.5877758 C99.5449704,6.45833888 99.7192999,6.29085948 99.8554621,6.08503843 C99.9915438,5.87921738 100.091149,5.64530979 100.154359,5.38287014 C100.217407,5.12087601 100.249133,4.85694941 100.249133,4.59138867 C100.249133,4.32612308 100.217407,4.0622021 100.154359,3.79990559 L100.154359,3.79990559 Z M96.7121359,2.02271329 L96.7121359,2.99832343 L96.7321053,2.99832343 C96.8780912,2.63987727 97.1156303,2.36288007 97.4444004,2.16701014 C97.7731706,1.97130105 98.1468719,1.87321329 98.5653432,1.87321329 C98.9571619,1.87321329 99.2975272,1.94633077 99.5866001,2.09241294 C99.875512,2.23834231 100.11603,2.43569196 100.30888,2.68475944 C100.501407,2.93367413 100.644172,3.22227587 100.737255,3.55084615 C100.830258,3.87941643 100.876639,4.22641084 100.876639,4.59138867 C100.876639,4.95651608 100.830258,5.30336493 100.737255,5.63193521 C100.644172,5.96050549 100.501407,6.24924878 100.30888,6.4980171 C100.11603,6.74708297 99.875512,6.94294727 99.5866001,7.08546122 C99.2975272,7.22827273 98.9571619,7.29975206 98.5653432,7.29975206 C98.3790965,7.29975206 98.1932524,7.27627276 98.0074083,7.23005563 C97.8213226,7.18339297 97.648684,7.11399329 97.489251,7.02081675 C97.3298985,6.92793776 97.188744,6.81187542 97.0657873,6.67233378 C96.9428307,6.5329401 96.8482176,6.37036388 96.7817872,6.1846051 L96.7619789,6.1846051 L96.7619789,9.05197811 L96.1343121,9.05197811 L96.1343121,2.02271329 L96.7121359,2.02271329 Z" id="Fill-54"></path>
                    <path d="M105.140908,4.35254734 C105.101049,4.42566241 105.024634,4.47871521 104.911743,4.51185451 C104.798771,4.54499381 104.699085,4.56817636 104.612846,4.58155094 C104.347124,4.62806483 104.073029,4.66952675 103.790961,4.7059351 C103.50841,4.74249224 103.251143,4.79717997 103.018758,4.87014626 C102.786211,4.9434093 102.595213,5.04802874 102.445926,5.1838558 C102.296317,5.31997962 102.221673,5.51406021 102.221673,5.76639514 C102.221673,5.9257015 102.253077,6.0667301 102.316447,6.18947934 C102.379496,6.31237734 102.464044,6.41848294 102.570413,6.50809287 C102.67654,6.59755402 102.799578,6.6657651 102.939041,6.71227899 C103.078505,6.75864409 103.22127,6.78197542 103.367497,6.78197542 C103.606566,6.78197542 103.835731,6.74556706 104.054911,6.67230402 C104.274091,6.59933773 104.465008,6.49308336 104.627743,6.35383846 C104.790558,6.21429682 104.919956,6.04518168 105.01626,5.84589955 C105.112644,5.64676619 105.160877,5.42118122 105.160877,5.16899507 L105.160877,4.35254734 L105.140908,4.35254734 Z M102.002493,2.81922098 C102.108701,2.60002133 102.253077,2.42095105 102.435942,2.28141503 C102.618404,2.14201573 102.832833,2.03932797 103.078505,1.97275664 C103.324177,1.90662762 103.596582,1.87318916 103.895478,1.87318916 C104.121261,1.87318916 104.347124,1.89488636 104.572988,1.93798322 C104.798771,1.98122483 105.001444,2.06251294 105.180766,2.18199231 C105.360249,2.30132692 105.506154,2.46909825 105.619126,2.68472727 C105.732017,2.90050909 105.788544,3.18107692 105.788544,3.5259965 L105.788544,6.25427178 C105.788544,6.50645794 105.911339,6.6326258 106.157172,6.6326258 C106.230044,6.6326258 106.296475,6.6194 106.356383,6.59265003 L106.356383,7.12035367 C106.283269,7.13387703 106.218449,7.14383378 106.162084,7.15022392 C106.105558,7.15691161 106.034215,7.16032944 105.947896,7.16032944 C105.788544,7.16032944 105.660514,7.13878101 105.564452,7.09553699 C105.467906,7.05244094 105.393263,6.99091755 105.340199,6.91141234 C105.286974,6.83175916 105.252108,6.73709647 105.235601,6.62757304 C105.218853,6.51804962 105.210639,6.39708329 105.210639,6.26407976 L105.19075,6.26407976 C105.077537,6.43007462 104.963196,6.57793808 104.846923,6.707375 C104.730649,6.83666315 104.601251,6.94455164 104.458325,7.03074374 C104.315479,7.11723339 104.152745,7.18336322 103.970122,7.23002587 C103.787418,7.27624301 103.570009,7.29972311 103.317493,7.29972311 C103.078505,7.29972311 102.854252,7.27133902 102.645217,7.21501636 C102.435942,7.15869451 102.253077,7.06908458 102.097106,6.94618657 C101.940975,6.82343734 101.818098,6.66740003 101.728558,6.4783714 C101.638777,6.28904601 101.594006,6.0649464 101.594006,5.80607336 C101.594006,5.44763283 101.673723,5.16721136 101.833156,4.96480895 C101.992508,4.76240573 102.203395,4.60815133 102.465735,4.50174899 C102.727994,4.39579217 103.02367,4.32104056 103.352601,4.27779895 C103.681371,4.2347021 104.015053,4.19323776 104.353808,4.15341399 C104.486588,4.14004021 104.602861,4.12354615 104.702547,4.10348147 C104.802153,4.08356958 104.88501,4.04879615 104.951601,3.99900839 C105.017951,3.94922867 105.069565,3.88116958 105.106122,3.79497587 C105.142437,3.70878217 105.160877,3.59584091 105.160877,3.45644965 C105.160877,3.24408566 105.12593,3.06976818 105.056118,2.93365 C104.986386,2.79766853 104.890082,2.68978566 104.767206,2.60997727 C104.64425,2.53032972 104.501485,2.47564441 104.338831,2.44576853 C104.176096,2.41604545 104.001686,2.40089441 103.815842,2.40089441 C103.417099,2.40089441 103.091791,2.49555629 102.839436,2.68472727 C102.586759,2.87405909 102.454139,3.17765909 102.440853,3.59584091 L101.813187,3.59584091 C101.833156,3.29699371 101.896204,3.03826783 102.002493,2.81922098 L102.002493,2.81922098 Z" id="Fill-55"></path>
                    <path d="M107.681368,2.02272937 L107.681368,2.90887273 L107.701418,2.90887273 C107.820831,2.5967965 108.033328,2.3462493 108.339069,2.15707028 C108.644568,1.96789126 108.979861,1.87322937 109.345268,1.87322937 C109.704073,1.87322937 110.004419,1.91974406 110.246951,2.01262867 C110.489401,2.1058028 110.683539,2.23657308 110.829928,2.40584021 C110.975753,2.5752521 111.078981,2.78271049 111.138729,3.02820734 C111.198556,3.27400175 111.22843,3.54937448 111.22843,3.85460699 L111.22843,7.1602249 L110.600763,7.1602249 L110.600763,3.95417448 C110.600763,3.73512762 110.580794,3.5310951 110.540855,3.34191608 C110.500997,3.15273706 110.431184,2.98837552 110.331579,2.84913706 C110.231973,2.70959301 110.097502,2.60006958 109.928165,2.52056678 C109.758908,2.44075839 109.547942,2.40093462 109.295425,2.40093462 C109.042909,2.40093462 108.818656,2.44581678 108.622989,2.53527552 C108.426999,2.62503182 108.260721,2.74793706 108.124801,2.90382238 C107.988639,3.05986049 107.88243,3.24576643 107.806015,3.46139545 C107.72952,3.67716923 107.688051,3.91107762 107.681368,4.16326538 L107.681368,7.1602249 L107.053701,7.1602249 L107.053701,2.02272937 L107.681368,2.02272937 Z" id="Fill-56"></path>
                    <path d="M112.523541,2.02272937 L114.217315,6.40351846 L115.801499,2.02272937 L116.429166,2.02272937 L114.197426,7.93684563 C114.104182,8.15589248 114.017943,8.33674727 113.938308,8.47955878 C113.858672,8.62207273 113.77042,8.73501399 113.674277,8.8180858 C113.577892,8.90100804 113.465001,8.96089731 113.335522,8.99730566 C113.205963,9.03371483 113.041537,9.05199339 112.842407,9.05199339 C112.716149,9.0453057 112.618154,9.04040171 112.548422,9.03713266 C112.478529,9.03371483 112.417252,9.02212315 112.364189,9.00235843 L112.364189,8.47465479 C112.437061,8.48773182 112.508403,8.49947227 112.578296,8.50942902 C112.648028,8.51938577 112.719289,8.52428976 112.792564,8.52428976 C112.931947,8.52428976 113.046691,8.50437626 113.136231,8.46454927 C113.225932,8.42472308 113.303957,8.37003535 113.370307,8.30019014 C113.436738,8.2304929 113.493264,8.14593573 113.539806,8.04636906 C113.586186,7.94680238 113.635868,7.83727895 113.689093,7.71779878 L113.908434,7.14046017 L111.855855,2.02272937 L112.523541,2.02272937 Z" id="Fill-57"></path>
                </g>
                <g id="euri-icon" transform="translate(133.666047, 0.000000)">
                    <path d="M8.47531313,19.7711941 L8.47531313,8.4397535 L19.8143005,8.4397535 L19.8143005,0.0171534965 L6.37007289,0.0171534965 C2.87792662,0.0171534965 0.0470246817,2.84603287 0.0470246817,6.33577622 L0.0470246817,19.7711941 L8.47531313,19.7711941 Z" id="Fill-65"></path>
                    <path d="M26.2826904,8.4397535 L37.6213558,8.4397535 L37.6213558,19.7711941 L46.0496442,19.7711941 L46.0496442,6.33577622 C46.0496442,2.84603287 43.2187423,0.0171534965 39.726596,0.0171534965 L26.2826904,0.0171534965 L26.2826904,8.4397535 Z" id="Fill-66"></path>
                    <path d="M37.6213558,26.2353762 L37.6213558,37.5668087 L26.2826904,37.5668087 L26.2826904,45.9894142 L39.726596,45.9894142 C43.2187423,45.9894142 46.0496442,43.1605302 46.0496442,39.6706421 L46.0496442,26.2353762 L37.6213558,26.2353762 Z" id="Fill-67"></path>
                    <path d="M19.8143005,37.5668087 L8.47531313,37.5668087 L8.47531313,26.2353762 L0.0470246817,26.2353762 L0.0470246817,39.6706421 C0.0470246817,43.1605302 2.8778461,45.9894142 6.37007289,45.9894142 L19.8143005,45.9894142 L19.8143005,37.5668087 Z" id="Fill-68"></path>
                    <path d="M31.079208,23.1970601 C31.079208,27.6294175 27.4835913,31.2227332 23.0482942,31.2227332 C18.6130776,31.2227332 15.0173804,27.6294175 15.0173804,23.1970601 C15.0173804,18.764558 18.6130776,15.1713871 23.0482942,15.1713871 C27.4835913,15.1713871 31.079208,18.764558 31.079208,23.1970601" id="Fill-69"></path>
                </g>
            </g>
        </g>
    </g>
</svg>